<svg xmlns="http://www.w3.org/2000/svg" width="900" height="463" viewBox="0 0 900 463" role="img" aria-labelledby="title desc">
<title id="title">Variação em 7 dias: Investimentos EA FC: Serie A em 24/07 — Console (PS)</title>
<desc id="desc">Gráfico gerado a partir da tabela publicada neste artigo.</desc>
<rect width="100%" height="100%" rx="20" fill="#0f172a"/>
<text x="28" y="42" fill="#f8fafc" font-family="system-ui,sans-serif" font-size="23" font-weight="700">Variação em 7 dias</text>
<text x="28" y="70" fill="#94a3b8" font-family="system-ui,sans-serif" font-size="15">Dados do recorte publicado no artigo</text>
<text x="28" y="117" fill="#e2e8f0" font-family="system-ui,sans-serif" font-size="16">Lautaro Martínez</text>
<rect x="285" y="95" width="480" height="28" rx="7" fill="#22c55e"/>
<text x="775" y="116" fill="#f8fafc" font-family="system-ui,sans-serif" font-size="15" font-weight="700">+55.6%</text>
<text x="28" y="175" fill="#e2e8f0" font-family="system-ui,sans-serif" font-size="16">Matías Soulé</text>
<rect x="285" y="153" width="244" height="28" rx="7" fill="#22c55e"/>
<text x="539" y="174" fill="#f8fafc" font-family="system-ui,sans-serif" font-size="15" font-weight="700">+28.3%</text>
<text x="28" y="233" fill="#e2e8f0" font-family="system-ui,sans-serif" font-size="16">Filip Kostić</text>
<rect x="285" y="211" width="171" height="28" rx="7" fill="#22c55e"/>
<text x="466" y="232" fill="#f8fafc" font-family="system-ui,sans-serif" font-size="15" font-weight="700">+19.8%</text>
<text x="28" y="291" fill="#e2e8f0" font-family="system-ui,sans-serif" font-size="16">Adrien Rabiot</text>
<rect x="285" y="269" width="150" height="28" rx="7" fill="#22c55e"/>
<text x="445" y="290" fill="#f8fafc" font-family="system-ui,sans-serif" font-size="15" font-weight="700">+17.4%</text>
<text x="28" y="349" fill="#e2e8f0" font-family="system-ui,sans-serif" font-size="16">Juan David Cabal</text>
<rect x="285" y="327" width="137" height="28" rx="7" fill="#22c55e"/>
<text x="432" y="348" fill="#f8fafc" font-family="system-ui,sans-serif" font-size="15" font-weight="700">+15.9%</text>
<text x="28" y="407" fill="#e2e8f0" font-family="system-ui,sans-serif" font-size="16">Hakan Çalhanoğlu</text>
<rect x="285" y="385" width="100" height="28" rx="7" fill="#22c55e"/>
<text x="395" y="406" fill="#f8fafc" font-family="system-ui,sans-serif" font-size="15" font-weight="700">+11.6%</text>
</svg>
