<svg xmlns="http://www.w3.org/2000/svg" width="900" height="463" viewBox="0 0 900 463" role="img" aria-labelledby="title desc">
<title id="title">Variação em 7 dias: Investimentos EA FC: Serie A em 18/07 — Console (PS)</title>
<desc id="desc">Gráfico gerado a partir da tabela publicada neste artigo.</desc>
<rect width="100%" height="100%" rx="20" fill="#0f172a"/>
<text x="28" y="42" fill="#f8fafc" font-family="system-ui,sans-serif" font-size="23" font-weight="700">Variação em 7 dias</text>
<text x="28" y="70" fill="#94a3b8" font-family="system-ui,sans-serif" font-size="15">Dados do recorte publicado no artigo</text>
<text x="28" y="117" fill="#e2e8f0" font-family="system-ui,sans-serif" font-size="16">Pierre Kalulu</text>
<rect x="285" y="95" width="480" height="28" rx="7" fill="#22c55e"/>
<text x="775" y="116" fill="#f8fafc" font-family="system-ui,sans-serif" font-size="15" font-weight="700">+80.6%</text>
<text x="28" y="175" fill="#e2e8f0" font-family="system-ui,sans-serif" font-size="16">Denzel Dumfries</text>
<rect x="285" y="153" width="389" height="28" rx="7" fill="#22c55e"/>
<text x="684" y="174" fill="#f8fafc" font-family="system-ui,sans-serif" font-size="15" font-weight="700">+65.4%</text>
<text x="28" y="233" fill="#e2e8f0" font-family="system-ui,sans-serif" font-size="16">Claudio Marchisio</text>
<rect x="285" y="211" width="303" height="28" rx="7" fill="#22c55e"/>
<text x="598" y="232" fill="#f8fafc" font-family="system-ui,sans-serif" font-size="15" font-weight="700">+50.8%</text>
<text x="28" y="291" fill="#e2e8f0" font-family="system-ui,sans-serif" font-size="16">Lúcio</text>
<rect x="285" y="269" width="276" height="28" rx="7" fill="#22c55e"/>
<text x="571" y="290" fill="#f8fafc" font-family="system-ui,sans-serif" font-size="15" font-weight="700">+46.3%</text>
<text x="28" y="349" fill="#e2e8f0" font-family="system-ui,sans-serif" font-size="16">Kevin De Bruyne</text>
<rect x="285" y="327" width="251" height="28" rx="7" fill="#22c55e"/>
<text x="546" y="348" fill="#f8fafc" font-family="system-ui,sans-serif" font-size="15" font-weight="700">+42.2%</text>
<text x="28" y="407" fill="#e2e8f0" font-family="system-ui,sans-serif" font-size="16">Lautaro Martínez</text>
<rect x="285" y="385" width="177" height="28" rx="7" fill="#22c55e"/>
<text x="472" y="406" fill="#f8fafc" font-family="system-ui,sans-serif" font-size="15" font-weight="700">+29.7%</text>
</svg>
