<svg xmlns="http://www.w3.org/2000/svg" width="900" height="463" viewBox="0 0 900 463" role="img" aria-labelledby="title desc">
<title id="title">Variação em 7 dias: Investimentos EA FC: Serie A em 16/07 — Console (PS)</title>
<desc id="desc">Gráfico gerado a partir da tabela publicada neste artigo.</desc>
<rect width="100%" height="100%" rx="20" fill="#0f172a"/>
<text x="28" y="42" fill="#f8fafc" font-family="system-ui,sans-serif" font-size="23" font-weight="700">Variação em 7 dias</text>
<text x="28" y="70" fill="#94a3b8" font-family="system-ui,sans-serif" font-size="15">Dados do recorte publicado no artigo</text>
<text x="28" y="117" fill="#e2e8f0" font-family="system-ui,sans-serif" font-size="16">Daniele De Rossi</text>
<rect x="285" y="95" width="480" height="28" rx="7" fill="#22c55e"/>
<text x="775" y="116" fill="#f8fafc" font-family="system-ui,sans-serif" font-size="15" font-weight="700">+84.8%</text>
<text x="28" y="175" fill="#e2e8f0" font-family="system-ui,sans-serif" font-size="16">Denzel Dumfries</text>
<rect x="285" y="153" width="344" height="28" rx="7" fill="#22c55e"/>
<text x="639" y="174" fill="#f8fafc" font-family="system-ui,sans-serif" font-size="15" font-weight="700">+60.8%</text>
<text x="28" y="233" fill="#e2e8f0" font-family="system-ui,sans-serif" font-size="16">Nuno Tavares</text>
<rect x="285" y="211" width="300" height="28" rx="7" fill="#22c55e"/>
<text x="595" y="232" fill="#f8fafc" font-family="system-ui,sans-serif" font-size="15" font-weight="700">+53.0%</text>
<text x="28" y="291" fill="#e2e8f0" font-family="system-ui,sans-serif" font-size="16">Marten de Roon</text>
<rect x="285" y="269" width="272" height="28" rx="7" fill="#22c55e"/>
<text x="567" y="290" fill="#f8fafc" font-family="system-ui,sans-serif" font-size="15" font-weight="700">+48.1%</text>
<text x="28" y="349" fill="#e2e8f0" font-family="system-ui,sans-serif" font-size="16">Luka Modrić</text>
<rect x="285" y="327" width="238" height="28" rx="7" fill="#22c55e"/>
<text x="533" y="348" fill="#f8fafc" font-family="system-ui,sans-serif" font-size="15" font-weight="700">+42.0%</text>
<text x="28" y="407" fill="#e2e8f0" font-family="system-ui,sans-serif" font-size="16">Marek Hamšík</text>
<rect x="285" y="385" width="237" height="28" rx="7" fill="#22c55e"/>
<text x="532" y="406" fill="#f8fafc" font-family="system-ui,sans-serif" font-size="15" font-weight="700">+41.8%</text>
</svg>
