<svg xmlns="http://www.w3.org/2000/svg" width="900" height="463" viewBox="0 0 900 463" role="img" aria-labelledby="title desc">
<title id="title">Variação em 7 dias: Investimentos EA FC: Serie A em 17/07 — Console (PS)</title>
<desc id="desc">Gráfico gerado a partir da tabela publicada neste artigo.</desc>
<rect width="100%" height="100%" rx="20" fill="#0f172a"/>
<text x="28" y="42" fill="#f8fafc" font-family="system-ui,sans-serif" font-size="23" font-weight="700">Variação em 7 dias</text>
<text x="28" y="70" fill="#94a3b8" font-family="system-ui,sans-serif" font-size="15">Dados do recorte publicado no artigo</text>
<text x="28" y="117" fill="#e2e8f0" font-family="system-ui,sans-serif" font-size="16">Daniele De Rossi</text>
<rect x="285" y="95" width="480" height="28" rx="7" fill="#22c55e"/>
<text x="775" y="116" fill="#f8fafc" font-family="system-ui,sans-serif" font-size="15" font-weight="700">+81.3%</text>
<text x="28" y="175" fill="#e2e8f0" font-family="system-ui,sans-serif" font-size="16">Alessandro Bastoni</text>
<rect x="285" y="153" width="348" height="28" rx="7" fill="#22c55e"/>
<text x="643" y="174" fill="#f8fafc" font-family="system-ui,sans-serif" font-size="15" font-weight="700">+58.9%</text>
<text x="28" y="233" fill="#e2e8f0" font-family="system-ui,sans-serif" font-size="16">Scott McTominay</text>
<rect x="285" y="211" width="329" height="28" rx="7" fill="#22c55e"/>
<text x="624" y="232" fill="#f8fafc" font-family="system-ui,sans-serif" font-size="15" font-weight="700">+55.8%</text>
<text x="28" y="291" fill="#e2e8f0" font-family="system-ui,sans-serif" font-size="16">Iván Córdoba</text>
<rect x="285" y="269" width="270" height="28" rx="7" fill="#22c55e"/>
<text x="565" y="290" fill="#f8fafc" font-family="system-ui,sans-serif" font-size="15" font-weight="700">+45.8%</text>
<text x="28" y="349" fill="#e2e8f0" font-family="system-ui,sans-serif" font-size="16">Hidetoshi Nakata</text>
<rect x="285" y="327" width="200" height="28" rx="7" fill="#22c55e"/>
<text x="495" y="348" fill="#f8fafc" font-family="system-ui,sans-serif" font-size="15" font-weight="700">+33.9%</text>
<text x="28" y="407" fill="#e2e8f0" font-family="system-ui,sans-serif" font-size="16">Cher Ndour</text>
<rect x="285" y="385" width="197" height="28" rx="7" fill="#22c55e"/>
<text x="492" y="406" fill="#f8fafc" font-family="system-ui,sans-serif" font-size="15" font-weight="700">+33.3%</text>
</svg>
