<svg xmlns="http://www.w3.org/2000/svg" width="900" height="463" viewBox="0 0 900 463" role="img" aria-labelledby="title desc">
<title id="title">Variação em 24h: Mercado EA FC em 18/07: Serie A — PC</title>
<desc id="desc">Gráfico gerado a partir da tabela publicada neste artigo.</desc>
<rect width="100%" height="100%" rx="20" fill="#0f172a"/>
<text x="28" y="42" fill="#f8fafc" font-family="system-ui,sans-serif" font-size="23" font-weight="700">Variação em 24h</text>
<text x="28" y="70" fill="#94a3b8" font-family="system-ui,sans-serif" font-size="15">Dados do recorte publicado no artigo</text>
<text x="28" y="117" fill="#e2e8f0" font-family="system-ui,sans-serif" font-size="16">Donyell Malen</text>
<rect x="285" y="95" width="480" height="28" rx="7" fill="#22c55e"/>
<text x="775" y="116" fill="#f8fafc" font-family="system-ui,sans-serif" font-size="15" font-weight="700">+46.2%</text>
<text x="28" y="175" fill="#e2e8f0" font-family="system-ui,sans-serif" font-size="16">Marek Hamšík</text>
<rect x="285" y="153" width="444" height="28" rx="7" fill="#22c55e"/>
<text x="739" y="174" fill="#f8fafc" font-family="system-ui,sans-serif" font-size="15" font-weight="700">+42.7%</text>
<text x="28" y="233" fill="#e2e8f0" font-family="system-ui,sans-serif" font-size="16">Maicon</text>
<rect x="285" y="211" width="374" height="28" rx="7" fill="#22c55e"/>
<text x="669" y="232" fill="#f8fafc" font-family="system-ui,sans-serif" font-size="15" font-weight="700">+36.0%</text>
<text x="28" y="291" fill="#e2e8f0" font-family="system-ui,sans-serif" font-size="16">Maicon</text>
<rect x="285" y="269" width="277" height="28" rx="7" fill="#22c55e"/>
<text x="572" y="290" fill="#f8fafc" font-family="system-ui,sans-serif" font-size="15" font-weight="700">+26.7%</text>
<text x="28" y="349" fill="#e2e8f0" font-family="system-ui,sans-serif" font-size="16">Nico Paz</text>
<rect x="285" y="327" width="272" height="28" rx="7" fill="#22c55e"/>
<text x="567" y="348" fill="#f8fafc" font-family="system-ui,sans-serif" font-size="15" font-weight="700">+26.2%</text>
<text x="28" y="407" fill="#e2e8f0" font-family="system-ui,sans-serif" font-size="16">Hakan Çalhanoğlu</text>
<rect x="285" y="385" width="228" height="28" rx="7" fill="#22c55e"/>
<text x="523" y="406" fill="#f8fafc" font-family="system-ui,sans-serif" font-size="15" font-weight="700">+21.9%</text>
</svg>
